Coordinates
version=1
nRows=6
nColumns=34
inDegrees=yes

Units are S.I. units (second, meters, Newtons, ...)
If the header above contains a line with 'inDegrees', this indicates whether rotational values are in degrees (yes) or radians (no).

endheader
time	pelvis_tilt	pelvis_list	pelvis_rotation	pelvis_tx	pelvis_ty	pelvis_tz	hip_flexion_r	hip_adduction_r	hip_rotation_r	knee_angle_r	ankle_angle_r	subtalar_angle_r	mtp_angle_r	hip_flexion_l	hip_adduction_l	hip_rotation_l	knee_angle_l	ankle_angle_l	subtalar_angle_l	mtp_angle_l	lumbar_extension	lumbar_bending	lumbar_rotation	arm_flex_r	arm_add_r	arm_rot_r	elbow_flex_r	pro_sup_r	arm_flex_l	arm_add_l	arm_rot_l	elbow_flex_l	pro_sup_l
      1.03333330	     -3.48687344	      2.48116972	      0.95237079	      1.78202842	      0.88235033	     -0.25338457	      1.45242380	    -11.00171729	     -1.16757406	      0.00000000	     -2.17826480	    -21.28249500	      0.00000000	      3.19680856	      0.95525959	     -3.01761404	      0.00000000	      3.14666493	     -1.23012018	      0.00000000	    -14.63102904	     -3.48478930	      1.00508901	     21.94083805	      1.84796249	     22.38607595	     33.22430776	     79.88328130	     19.51970886	     -4.49892618	     23.12917872	     41.87321729	     89.26048571
      1.05000000	     -3.52868033	      2.35212426	      1.11009756	      1.78313706	      0.88137506	     -0.25646483	      1.45807189	    -11.13117986	     -1.59623859	      0.00000000	     -2.25751369	    -20.85233676	      0.00000000	      3.20324447	      1.04436308	     -2.96279633	      0.00000000	      3.32110896	     -1.18599225	      0.00000000	    -14.58039126	     -3.43762164	      0.63179342	     20.36307238	      1.27642118	     20.98952193	     37.57582270	     79.80768212	     19.58861677	     -4.63616555	     23.48093652	     42.28709007	     88.58586089
      1.06666670	     -3.53792719	      2.25585615	      1.13242889	      1.78421369	      0.88030896	     -0.25881600	      1.47971137	    -11.26057230	     -1.90543769	      0.00000000	     -2.62812174	    -20.52796943	      0.00000000	      3.15421565	      1.11553982	     -2.93803979	      0.00000000	      3.51781736	     -1.23192820	      0.00000000	    -14.47009874	     -3.48529868	      0.19389879	     18.88098307	      1.05952861	     19.91503280	     41.63696665	     79.92445626	     19.80451320	     -4.91374724	     23.84438863	     42.48041223	     87.80932564
      1.08333330	     -3.50743184	      2.18826935	      1.07037939	      1.78575815	      0.87939104	     -0.26103030	      1.45163520	    -11.40405698	     -2.21241224	      0.00000000	     -3.05714095	    -20.37322238	      0.00000000	      3.01540264	      1.19966846	     -3.01979992	      0.00000000	      3.81131009	     -1.33298420	      0.00000000	    -13.88920824	     -3.48489058	     -0.99934438	     18.18218315	      1.52731790	     19.98689527	     43.68196625	     79.99567547	     19.54776360	     -5.51554577	     23.94321374	     42.23486364	     87.64941905
      1.10000000	     -3.84619971	      2.00225809	      0.96242992	      1.78681995	      0.88074284	     -0.26340165	      2.27928232	    -11.44884604	     -2.62990941	      0.85920764	     -2.87848854	    -19.97831133	      0.00000000	      3.29074959	      1.15621284	     -3.00151800	      0.00000000	      3.88671905	     -1.47031158	      0.00000000	    -13.55265552	     -3.41635831	     -0.95431804	     15.71985672	      0.19319103	     20.49461681	     51.17689943	     80.32063378	     19.37121691	     -5.48118982	     24.14622284	     44.07529807	     86.87299814
      1.11666670	     -3.67594955	      1.87546019	      0.75335255	      1.78725750	      0.88372093	     -0.26459219	      2.54340008	    -11.49250018	     -3.03103872	      1.68779993	     -2.36575977	    -19.32945801	      0.00000000	      2.99092402	      1.15264942	     -3.02861276	      0.00000000	      4.01286991	     -1.69437310	      0.00000000	    -13.69008490	     -3.43128082	     -0.98131903	     13.83216315	     -0.34964373	     19.88310250	     57.41069208	     80.66126389	     19.52602083	     -5.48591360	     25.81150203	     45.26836596	     85.39374234
